PathFileType	4	(X/Y/Z)	/Users/niels/Desktop/University/Third Semester/Perception and Action/Exam/Gymnastics Motion Tracking/Code for Gym Tracking/Analyzed Data/Webcam_Backflip/id8_1_baseline_Sports2D/id8_1_baseline_Sports2D_px_person00.trc
DataRate	CameraRate	NumFrames	NumMarkers	Units	OrigDataRate	OrigDataStartFrame	OrigNumFrames
29.714285714285715	29.714285714285715	10	22	m	29.714285714285715	0	105
Frame#	Time	Hip			RHip			RKnee			RAnkle			RBigToe			RSmallToe			RHeel			LHip			LKnee			LAnkle			LBigToe			LSmallToe			LHeel			Neck			Head			Nose			RShoulder			RElbow			RWrist			LShoulder			LElbow			LWrist		
		X1	Y1	Z1	X2	Y2	Z2	X3	Y3	Z3	X4	Y4	Z4	X5	Y5	Z5	X6	Y6	Z6	X7	Y7	Z7	X8	Y8	Z8	X9	Y9	Z9	X10	Y10	Z10	X11	Y11	Z11	X12	Y12	Z12	X13	Y13	Z13	X14	Y14	Z14	X15	Y15	Z15	X16	Y16	Z16	X17	Y17	Z17	X18	Y18	Z18	X19	Y19	Z19	X20	Y20	Z20	X21	Y21	Z21	X22	Y22	Z22
0	0.0	0.8716904417639958	-0.5295961313064808	0.0	0.8583006331545144	-0.5295924733983695	0.0	0.862761599115707	-0.7415283604811655	0.0	0.860513411029012	-0.9534678214667994	0.0	0.9587021632457147	-0.971329425217088	0.0	0.9475419050906141	-0.9847139192647562	0.0	0.842656362102155	-0.982476045968496	0.0	0.8783827722853187	-0.5295921314496187	0.0	0.9096023607884318	-0.7259225720075226	0.0	0.8917305646988849	-0.9177882304334464	0.0	0.978738327995328	-0.9400941913702443	0.0	0.9653475926382024	-0.9334056614302093	0.0	0.873893045967812	-0.9378642709876785	0.0	0.893995268431075	-0.23063027733956978	0.0	0.9363740176198777	-0.10122893828390264	0.0	0.951992152790373	-0.1815456595750157	0.0	0.8605332525880364	-0.26185860661937926	0.0	0.8158994104646821	-0.4113411250886357	0.0	0.7868635111941331	-0.5563508679851363	0.0	0.8917761350898358	-0.27079444008106957	0.0	0.842640522796669	-0.4135948851163972	0.0	0.8203081340224991	-0.5340947430888267	0.0
1	0.03365384615384615	0.8655948498951377	-0.5325520955097384	0.0	0.8546177399140277	-0.5327406645530888	0.0	0.860545558441348	-0.7408198352704098	0.0	0.8573019665130308	-0.950832356545363	0.0	0.9539865743717786	-0.9741368071273442	0.0	0.9367715185083475	-0.9857830708951977	0.0	0.8374973862027643	-0.9804205537245118	0.0	0.8771008164884676	-0.5331198758654038	0.0	0.9124357422380098	-0.7275407985175124	0.0	0.9128395455937053	-0.9185327766293948	0.0	1.0025759008826962	-0.9402499644494557	0.0	0.9888404993307204	-0.932478671923746	0.0	0.8981502783995982	-0.9416343701614583	0.0	0.8968563507636224	-0.23136695004793023	0.0	0.9390461289391856	-0.10305612508087655	0.0	0.9530876689489117	-0.18054767820914122	0.0	0.8652425152187109	-0.2663988763740185	0.0	0.8393769631724377	-0.4195290810080472	0.0	0.8389666052659225	-0.5622877584064547	0.0	0.8933218679623777	-0.27174064821809574	0.0	0.8620700598361389	-0.4160933520699149	0.0	0.8555723108623036	-0.5370024551106134	0.0
2	0.0673076923076923	0.8611017338411749	-0.5344488531396181	0.0	0.8518295712115391	-0.5346925876448674	0.0	0.8592906479232568	-0.7402513971629064	0.0	0.8546526417477004	-0.948771825262272	0.0	0.9491395878295933	-0.9760985898166978	0.0	0.9275764503436932	-0.9864880177299981	0.0	0.8335256352625372	-0.9789995793309807	0.0	0.8768184093255632	-0.5354263620571813	0.0	0.9159565222733266	-0.7287188245860309	0.0	0.9319179421472548	-0.9194270744846704	0.0	1.023887428237036	-0.940196600009483	0.0	1.0102020477556521	-0.9316799061504982	0.0	0.9197317414855974	-0.9449798988945507	0.0	0.8997588469174818	-0.23207528988662643	0.0	0.9414862034248263	-0.10452887866871417	0.0	0.9539810181244818	-0.17984665797282076	0.0	0.8696222161870429	-0.27040736912123714	0.0	0.862643701559923	-0.42614585935605	0.0	0.8906128778248746	-0.5644400940215136	0.0	0.8951802976938326	-0.2726115283858886	0.0	0.8812316696180861	-0.4176424998891514	0.0	0.8917940068773312	-0.5370378193441093	0.0
3	0.10096153846153846	0.859271345334727	-0.5349507678522747	0.0	0.850626741198856	-0.5350607196342518	0.0	0.8594247809924253	-0.7400714717610217	0.0	0.8527586415412809	-0.9475537852732505	0.0	0.9443367131884217	-0.9768331306522495	0.0	0.920885559169983	-0.9866921949962942	0.0	0.8312554678055069	-0.9784594734940559	0.0	0.8783041006614847	-0.5361558399969956	0.0	0.920571929865421	-0.729289930315315	0.0	0.9472564414550624	-0.9204835089223188	0.0	1.0404518497348505	-0.9401653358045239	0.0	1.0273854571639247	-0.9313685229165485	0.0	0.9365127967964406	-0.9476200501972817	0.0	0.9027701032723281	-0.23264057235370172	0.0	0.9436059991307686	-0.10542790839018036	0.0	0.9546318040934065	-0.1794426372998291	0.0	0.8734417268442315	-0.27340977111747455	0.0	0.8852914735889093	-0.4297567226211414	0.0	0.9406029841831253	-0.559915987331715	0.0	0.8978644668658194	-0.27333556758496275	0.0	0.8997352199560321	-0.41763199106446874	0.0	0.9278026023960859	-0.5320684525076722	0.0
4	0.1346153846153846	0.8602591839028331	-0.5343443614840702	0.0	0.8512971965854575	-0.534200740467185	0.0	0.8608527291193299	-0.7403835814160035	0.0	0.8514521340204243	-0.9471291055172957	0.0	0.9401071463442792	-0.9764330072803237	0.0	0.9168273626594688	-0.9864579321841525	0.0	0.8304549415209159	-0.9786266471760767	0.0	0.881822769899148	-0.5356886381019631	0.0	0.9261940610877405	-0.7293199347402538	0.0	0.9578939212450263	-0.9215487956428939	0.0	1.050997050945598	-0.9405999505166944	0.0	1.0389791742619872	-0.9319315807565611	0.0	0.9474682246901073	-0.9494182094123323	0.0	0.9059500110521929	-0.23292573060730598	0.0	0.9454795739675202	-0.10569423906746529	0.0	0.9552112060444791	-0.17910370985623766	0.0	0.8767279507472289	-0.27512608245934167	0.0	0.9068056429591804	-0.42953442573255485	0.0	0.9869843170162432	-0.5475649907077189	0.0	0.9017162621416185	-0.27384190549798626	0.0	0.9168560333917407	-0.415909920720296	0.0	0.9603332467888798	-0.5211334849093264	0.0
5	0.16826923076923075	0.863586714763226	-0.533028873610882	0.0	0.8538273162646266	-0.5326459972639135	0.0	0.8633450819643842	-0.7409310350027999	0.0	0.8505164382476335	-0.9473443959104012	0.0	0.9369755247087949	-0.9753149500960834	0.0	0.914916133165338	-0.9859661965188223	0.0	0.8305585948246585	-0.9791775059083956	0.0	0.8871769763281517	-0.5345339608459304	0.0	0.9322929434791982	-0.7289858892481988	0.0	0.9639638230315531	-0.9224733040258137	0.0	1.0558310447387595	-0.9417247274811148	0.0	1.0449400196563363	-0.9334572681654796	0.0	0.9529438919483177	-0.9504127728798277	0.0	0.9093580842853507	-0.23286093927043156	0.0	0.9472532379025788	-0.10535421107938846	0.0	0.9560637971177639	-0.1785713288366293	0.0	0.8798104227966652	-0.27555290693618434	0.0	0.9266755790717127	-0.4255971101894735	0.0	1.027784913001175	-0.5281095705267548	0.0	0.9066276332691627	-0.27403475809572025	0.0	0.9317772451437604	-0.4126703201136813	0.0	0.9859196465871124	-0.5044943200552388	0.0
6	0.20192307692307693	0.8687575339923274	-0.5313527546953957	0.0	0.8581422440444084	-0.5308298032063441	0.0	0.8667609871361711	-0.7412855666178749	0.0	0.8499250650912954	-0.9480212044510395	0.0	0.9350567824705779	-0.9740674732872477	0.0	0.9142984240284596	-0.985476737718477	0.0	0.8310724140313025	-0.9798192700779661	0.0	0.8939960043367972	-0.5331074175322643	0.0	0.9382048061985842	-0.7285574344384336	0.0	0.9665946225735831	-0.9232991082895536	0.0	1.0567034834630413	-0.9434638572985613	0.0	1.0466952227169484	-0.9356942680211848	0.0	0.9544350002921419	-0.9508792388010114	0.0	0.9130568764234258	-0.23246061411571745	0.0	0.9490216968935729	-0.10447893699173164	0.0	0.9575473143127405	-0.1776395525430669	0.0	0.8830909822879117	-0.2749359772274662	0.0	0.9443321039409885	-0.4188692849746273	0.0	1.0616140242008436	-0.5035939210460407	0.0	0.9122351201407046	-0.2737914595553679	0.0	0.9441791698837926	-0.4083284793146559	0.0	1.0038246474283499	-0.4835161975047054	0.0
7	0.23557692307692307	0.8755457564845948	-0.5296845866684463	0.0	0.8641057791170875	-0.5291175726286497	0.0	0.8710111185940185	-0.7412137916451956	0.0	0.8497861730681215	-0.9488847188021734	0.0	0.9340775128627712	-0.9732022128135875	0.0	0.9141361948571989	-0.9852182646987592	0.0	0.8317205393137703	-0.9803153613132223	0.0	0.9019739165507136	-0.5317922209341147	0.0	0.9434834589968435	-0.7283916275397464	0.0	0.9673219352655074	-0.9242166513651068	0.0	1.0557884074686148	-0.9456176738900172	0.0	1.0462987267676382	-0.9382712894900036	0.0	0.9538991900715719	-0.9512281595917942	0.0	0.9171143294843809	-0.23178965692079925	0.0	0.9508198690205227	-0.10322386674105252	0.0	0.9598444247560286	-0.17617648588898802	0.0	0.8867805662846023	-0.27367646510010124	0.0	0.9592706671943262	-0.410661159303	0.0	1.0878429081791214	-0.47657912354477827	0.0	0.9182835578712579	-0.2730654235319279	0.0	0.9545010633906679	-0.4034153023268588	0.0	1.0182310073120426	-0.4604088107498523	0.0
8	0.2692307692307692	0.8837669208005938	-0.5283416646390919	0.0	0.8713348639461765	-0.5278093229861273	0.0	0.8759540353083619	-0.7408147586496485	0.0	0.8501417103540916	-0.9495973489963662	0.0	0.9337219306157308	-0.9729455147111613	0.0	0.9139916006394094	-0.9852441888265409	0.0	0.8323755146094232	-0.9805253961480419	0.0	0.9108745340335519	-0.5308961781767814	0.0	0.9480335545961461	-0.728811601934159	0.0	0.9674271200237502	-0.9253567325141061	0.0	1.0546244173976906	-0.9479715622730019	0.0	1.0453478912984415	-0.9408795702671545	0.0	0.9529387608727427	-0.9517706079738559	0.0	0.9215886951065566	-0.23093014270314255	0.0	0.9527098449780674	-0.10183244014202933	0.0	0.9629162224654216	-0.17422051049385484	0.0	0.8908683373997351	-0.2721883155248117	0.0	0.9713503305987142	-0.4022891496416737	0.0	1.1067241303615964	-0.4495383677142383	0.0	0.9247688034802161	-0.2720112454433981	0.0	0.9635635852235189	-0.39848206491108495	0.0	1.0352934737125725	-0.4378852466236948	0.0
9	0.30288461538461536	0.8930107580827368	-0.5274564579982121	0.0	0.8792415622913506	-0.5270643672881877	0.0	0.8813765568764567	-0.7403349467578787	0.0	0.8509204781248817	-0.9498289115298176	0.0	0.9338929194737642	-0.9731981717221166	0.0	0.9138797018717943	-0.98537483811605	0.0	0.8329596196320032	-0.9803780195811173	0.0	0.9204036930509008	-0.5305302972811934	0.0	0.9520086108644861	-0.7299173013583479	0.0	0.9676364322824645	-0.9266612791752278	0.0	1.053792817312424	-0.9502500460259672	0.0	1.0445153437855033	-0.9432580821621303	0.0	0.9523993686430321	-0.952577326199927	0.0	0.926479559546881	-0.2299658395260711	0.0	0.9548138830267668	-0.1005534548455942	0.0	0.9666283755617435	-0.17203108636046885	0.0	0.8952887202898825	-0.2707887865984119	0.0	0.9809283613121544	-0.3948237615740311	0.0	1.1193955677033929	-0.42451716883565777	0.0	0.931788103005809	-0.27092633697486196	0.0	0.971938130930172	-0.39404436343612886	0.0	1.0565629087682709	-0.41862558498448726	0.0
